<svg id="Icons" xmlns="http://www.w3.org/2000/svg" viewBox="0 0 215 215"><defs><style>.cls-1{fill:#fff;}</style></defs><g id="YouTube"><path id="Background" d="M1385,380.2c0-48.65,0-73,15.11-88.09S1439.55,277,1488.2,277h8.6c48.65,0,73,0,88.09,15.11S1600,331.55,1600,380.2v8.6c0,48.65,0,73-15.11,88.09S1545.45,492,1496.8,492h-8.6c-48.65,0-73,0-88.09-15.11S1385,437.45,1385,388.8Z" transform="translate(-1385 -277)"/><path id="YouTube-2" data-name="YouTube" class="cls-1" d="M1550.87,354.5A15.34,15.34,0,0,0,1540,343.66c-9.56-2.56-47.89-2.56-47.89-2.56s-38.33,0-47.89,2.56a15.36,15.36,0,0,0-10.84,10.84c-2.56,9.56-2.56,29.5-2.56,29.5s0,19.94,2.56,29.5a15.36,15.36,0,0,0,10.84,10.84c9.56,2.56,47.89,2.56,47.89,2.56s38.33,0,47.89-2.56a15.34,15.34,0,0,0,10.83-10.84c2.56-9.56,2.56-29.5,2.56-29.5S1553.43,364.06,1550.87,354.5Zm-71,47.89V365.61L1511.73,384Z" transform="translate(-1385 -277)"/></g></svg>